<mxfile host="app.diagrams.net" agent="Mozilla/5.0 (Windows NT 10.0; Win64; x64) AppleWebKit/537.36 (KHTML, like Gecko) Chrome/135.0.0.0 Safari/537.36 Edg/135.0.0.0" version="26.2.14">
  <diagram name="Page-1" id="TdrzcOV-UNlIRKtFkZLf">
    <mxGraphModel dx="1281" dy="616" grid="1" gridSize="10" guides="1" tooltips="1" connect="1" arrows="1" fold="1" page="1" pageScale="1" pageWidth="827" pageHeight="1169" math="0" shadow="0">
      <root>
        <mxCell id="0" />
        <mxCell id="1" parent="0" />
        <mxCell id="bgS8-4ASuz-KEyf1Ljvr-1" value="" style="ellipse;html=1;shape=startState;fillColor=#000000;strokeColor=#ff0000;" parent="1" vertex="1">
          <mxGeometry x="414" y="20" width="100" height="50" as="geometry" />
        </mxCell>
        <mxCell id="bgS8-4ASuz-KEyf1Ljvr-2" value="" style="edgeStyle=orthogonalEdgeStyle;html=1;verticalAlign=bottom;endArrow=open;endSize=8;strokeColor=#ff0000;rounded=0;entryX=0.5;entryY=0;entryDx=0;entryDy=0;" parent="1" source="bgS8-4ASuz-KEyf1Ljvr-1" edge="1" target="kAa6bXmPHWRR-01voxHk-1">
          <mxGeometry relative="1" as="geometry">
            <mxPoint x="464" y="130" as="targetPoint" />
            <Array as="points">
              <mxPoint x="464" y="100" />
              <mxPoint x="465" y="100" />
            </Array>
          </mxGeometry>
        </mxCell>
        <mxCell id="kAa6bXmPHWRR-01voxHk-1" value="الاطلاع على المنيو" style="rounded=1;whiteSpace=wrap;html=1;" vertex="1" parent="1">
          <mxGeometry x="404" y="120" width="120" height="60" as="geometry" />
        </mxCell>
        <mxCell id="kAa6bXmPHWRR-01voxHk-2" value="" style="rhombus;whiteSpace=wrap;html=1;" vertex="1" parent="1">
          <mxGeometry x="424" y="240" width="80" height="80" as="geometry" />
        </mxCell>
        <mxCell id="kAa6bXmPHWRR-01voxHk-3" value="" style="endArrow=open;endFill=1;endSize=12;html=1;rounded=0;exitX=0.5;exitY=1;exitDx=0;exitDy=0;entryX=0.5;entryY=0;entryDx=0;entryDy=0;" edge="1" parent="1" source="kAa6bXmPHWRR-01voxHk-1" target="kAa6bXmPHWRR-01voxHk-2">
          <mxGeometry width="160" relative="1" as="geometry">
            <mxPoint x="240" y="390" as="sourcePoint" />
            <mxPoint x="400" y="390" as="targetPoint" />
          </mxGeometry>
        </mxCell>
        <mxCell id="kAa6bXmPHWRR-01voxHk-4" value="" style="endArrow=open;endFill=1;endSize=12;html=1;rounded=0;exitX=0;exitY=0.5;exitDx=0;exitDy=0;" edge="1" parent="1" source="kAa6bXmPHWRR-01voxHk-2">
          <mxGeometry width="160" relative="1" as="geometry">
            <mxPoint x="210" y="360" as="sourcePoint" />
            <mxPoint x="330" y="280" as="targetPoint" />
          </mxGeometry>
        </mxCell>
        <mxCell id="kAa6bXmPHWRR-01voxHk-6" value="&lt;font style=&quot;font-size: 14px;&quot;&gt;&lt;b&gt;طلب&lt;/b&gt;&lt;/font&gt;" style="edgeLabel;html=1;align=center;verticalAlign=middle;resizable=0;points=[];" vertex="1" connectable="0" parent="kAa6bXmPHWRR-01voxHk-4">
          <mxGeometry x="-0.1021" y="-2" relative="1" as="geometry">
            <mxPoint as="offset" />
          </mxGeometry>
        </mxCell>
        <mxCell id="kAa6bXmPHWRR-01voxHk-5" value="" style="endArrow=open;endFill=1;endSize=12;html=1;rounded=0;exitX=1;exitY=0.5;exitDx=0;exitDy=0;" edge="1" parent="1" source="kAa6bXmPHWRR-01voxHk-2">
          <mxGeometry width="160" relative="1" as="geometry">
            <mxPoint x="330" y="320" as="sourcePoint" />
            <mxPoint x="610" y="280" as="targetPoint" />
          </mxGeometry>
        </mxCell>
        <mxCell id="kAa6bXmPHWRR-01voxHk-7" value="&lt;font style=&quot;font-size: 14px;&quot;&gt;&lt;b style=&quot;&quot;&gt;عدم الطلب&lt;/b&gt;&lt;/font&gt;" style="edgeLabel;html=1;align=center;verticalAlign=middle;resizable=0;points=[];" vertex="1" connectable="0" parent="kAa6bXmPHWRR-01voxHk-5">
          <mxGeometry x="-0.1736" y="-4" relative="1" as="geometry">
            <mxPoint x="2" y="-14" as="offset" />
          </mxGeometry>
        </mxCell>
      </root>
    </mxGraphModel>
  </diagram>
</mxfile>
